<svg t="1652344041142" class="icon" viewBox="0 0 1024 1024" version="1.1" xmlns="http://www.w3.org/2000/svg" p-id="1470" width="200" height="200"><path d="M925.728 381.984c-0.512-4.768-1.504-9.408-2.144-14.08-1.312-9.44-2.56-18.848-4.48-28.032-1.152-5.536-2.816-10.88-4.192-16.32-2.048-8.192-3.968-16.384-6.528-24.32-1.792-5.696-4.032-11.136-6.08-16.64-2.72-7.52-5.376-15.008-8.512-22.272-2.432-5.6-5.248-10.976-7.904-16.416-3.36-6.88-6.624-13.824-10.336-20.48-3.04-5.44-6.4-10.624-9.664-15.904-3.904-6.336-7.776-12.736-12.032-18.848-3.552-5.12-7.456-10.048-11.264-15.04-4.48-5.824-8.864-11.68-13.6-17.28-4.16-4.8-8.48-9.408-12.8-14.048a409.6 409.6 0 0 0-15.104-15.648c-4.576-4.416-9.344-8.608-14.112-12.8a432.64 432.64 0 0 0-16.576-14.08 412.8 412.8 0 0 0-15.296-11.456 433.568 433.568 0 0 0-17.92-12.352c-5.376-3.488-10.88-6.72-16.448-9.984a424.256 424.256 0 0 0-19.072-10.528 419.104 419.104 0 0 0-37.664-16.96c-6.08-2.432-12.16-4.64-18.368-6.72a360.8 360.8 0 0 0-21.184-6.528 430.144 430.144 0 0 0-19.136-4.96 447.36 447.36 0 0 0-22.08-4.32c-6.528-1.152-13.12-2.24-19.776-3.04a416 416 0 0 0-22.88-2.08c-6.752-0.448-13.504-0.896-20.352-1.024-2.752-0.064-5.44-0.416-8.224-0.416-5.248 0-10.304 0.64-15.52 0.8-4.576 0.16-9.024-0.096-13.632 0.224-2.24 0.16-4.256 0.64-6.432 0.768-8.544 0.768-16.896 1.952-25.28 3.2-5.792 0.832-11.616 1.536-17.312 2.624-12.16 2.304-24.032 5.248-35.776 8.576-1.12 0.352-2.304 0.544-3.392 0.896C222.08 77.184 96 236.48 96 425.408c0 8.032 1.152 15.04 1.472 22.784 0.16 17.504 0.96 35.104 3.264 52.832C136.416 783.68 365.984 944.64 465.792 1002.048c28.48 16.384 63.168 16.8 91.648 0.48 98.816-56.704 326.848-216.736 364.64-497.12 0.48-3.328 1.056-6.592 1.504-9.984 2.656-22.624 4.416-45.824 4.416-70.016 0-14.688-0.8-29.12-2.272-43.424" p-id="1471" data-spm-anchor-id="a313x.7781069.0.i3" class="selected" fill="#6035D2"></path><path d="M674.912 553.248a20.32 20.32 0 0 1-11.264 18.208l-133.408 66.72a40.736 40.736 0 0 1-36.416 0l-133.376-66.72a20.32 20.32 0 0 1-11.264-18.208v-68.832l144.64 72.32c11.52 5.728 24.992 5.728 36.416 0l144.672-72.32v68.832z" p-id="1472" data-spm-anchor-id="a313x.7781069.0.i2" class="" fill="#ffffff"></path><path d="M736 546.336a20.352 20.352 0 1 1-40.704 0V453.44a10.208 10.208 0 0 0-14.816-9.088l-149.824 76.32a40.832 40.832 0 0 1-37.216 0l-193.824-98.72a21.248 21.248 0 0 1 0-37.888l193.824-98.72a40.832 40.832 0 0 1 37.216 0l193.856 98.72a20.928 20.928 0 0 1 11.424 19.456l0.064 0.32v142.528z" p-id="1473" data-spm-anchor-id="a313x.7781069.0.i1" class="" fill="#ffffff"></path></svg>
