<svg t="1652344783430" class="icon" viewBox="0 0 1024 1024" version="1.1" xmlns="http://www.w3.org/2000/svg" p-id="15610" width="200" height="200"><path d="M746.202048 566.345157a327.851449 327.851449 0 0 1-157.330146 87.037543v62.823638h205.396553v153.896831h-205.396553V1024H436.842312v-153.896831H231.445759V716.206338h205.396553v-62.281536A328.995887 328.995887 0 0 1 277.705158 566.345157a332.188268 332.188268 0 0 1 0-469.219692 331.043829 331.043829 0 0 1 468.49689 0 332.007567 332.007567 0 0 1 0 469.219692z m-107.215796-360.437823a180.218911 180.218911 0 0 0-254.185765 0 178.713072 178.713072 0 0 0 0 253.342494 180.218911 180.218911 0 0 0 254.185765 0 178.713072 178.713072 0 0 0 0-253.342494z" fill="#6035D2" p-id="15611"></path></svg>
